<svg width="154" height="57" viewBox="0 0 154 57" fill="none" xmlns="http://www.w3.org/2000/svg">
<g id="Layer_1" clip-path="url(#clip0_33_16)">
<g id="Group">
<path id="Vector" d="M8.37081 19.2263C5.05389 19.0212 1.36557 21.573 0.302622 25.3687C-0.939624 29.78 1.801 34.3066 5.63019 35.5505C6.71875 35.9096 7.84574 36.1404 8.94711 36.4866C11.3035 37.2176 13.66 37.9485 15.645 39.5001C17.8093 41.1928 19.0003 43.5267 19.8328 46.0657C20.3578 47.6943 20.742 49.3613 21.2415 50.9899C22.2276 54.2214 25.1731 56.9912 29.3481 56.9143C32.3961 56.863 34.7653 55.5807 36.3918 53.0673C37.9286 50.7078 38.1335 48.1046 37.1217 45.4886C36.1869 43.0778 34.4964 41.398 31.9863 40.6158C29.9116 39.9746 27.8113 39.3847 25.7494 38.6666C22.6118 37.5638 20.1145 35.6274 18.8595 32.4729C17.9758 30.2673 17.233 27.9847 16.6183 25.6765C15.7474 22.4065 13.1221 19.8418 9.80516 19.3033C9.34412 19.2263 8.85747 19.2391 8.39643 19.2135L8.37081 19.2263Z" fill="url(#paint0_linear_33_16)"/>
<path id="Vector_2" d="M35.6675 8.53024C35.898 3.91381 31.8511 0.105265 27.5353 0.00267739C22.9121 -0.112733 18.9548 3.51629 18.8908 8.31224C18.8268 12.9928 22.1693 16.75 27.1255 16.8526C31.8895 16.9552 35.6675 13.3518 35.6675 8.53024Z" fill="#212121"/>
</g>
<g id="Group_2">
<path id="Vector_3" d="M42.9277 25.4544H35.4614V22.4537H54.0311V25.4544H46.5648V38.4702H42.9277V25.4544Z" fill="#212121"/>
<path id="Vector_4" d="M69.668 30.9171C69.668 31.8276 69.5271 32.6355 69.3991 33.0715H58.2573C58.7311 34.8155 60.5241 35.867 63.1878 35.867C64.8527 35.867 67.2732 35.6362 68.8484 35.2771V38.1111C67.5421 38.406 65.5315 38.7266 63.3671 38.7266C57.7194 38.701 54.4153 36.1234 54.4153 31.9815C54.4153 27.8395 57.6169 25.2492 62.4579 25.2492C66.8633 25.2492 69.6808 27.4035 69.6808 30.9171H69.668ZM66.223 30.9171C66.223 29.1988 64.6862 28.0832 62.381 28.0832C60.0758 28.0832 58.5646 29.1603 58.1548 30.9171H66.223Z" fill="#212121"/>
<path id="Vector_5" d="M72.4087 21.5433H75.9305V30.7633L82.6284 25.4801H87.3797L80.3616 30.9941C83.2431 32.1867 84.5878 35.2771 86.6497 35.2771H88.2249V38.483H86.0606C82.0905 38.483 81.2197 34.0717 77.5826 33.1997L75.9433 34.4821V38.483H72.4215V21.5561L72.4087 21.5433Z" fill="#212121"/>
<path id="Vector_6" d="M90.5557 22.4537H105.424V25.4544H94.1799V28.7757H103.529V31.584H94.1799V35.4695H105.424V38.4702H90.5557V22.4537Z" fill="#212121"/>
<path id="Vector_7" d="M114.261 30.5966C115.631 30.5966 117.821 30.6863 118.986 30.8274V30.417C118.871 28.75 117.757 28.0832 115.144 28.0832C113.108 28.0832 110.777 28.314 109.138 28.6731V25.8647C110.508 25.5698 113.134 25.2492 115.375 25.2492C120.19 25.2492 122.521 26.8265 122.521 30.0708V38.4701H119.409L119.14 36.9185C117.924 38.0854 116.105 38.7266 113.685 38.7266C109.919 38.7266 107.819 37.2134 107.819 34.5462C107.819 31.8789 110.009 30.6094 114.261 30.6094V30.5966ZM119.012 32.9304C117.847 32.9048 115.81 32.9048 114.696 32.9048C112.532 32.9048 111.431 33.4946 111.431 34.6231C111.431 35.7516 112.455 36.226 114.581 36.226C116.476 36.226 118.577 35.4053 119.012 33.9819V32.9304Z" fill="#212121"/>
<path id="Vector_8" d="M131.012 21.4022V25.4672H137.633V28.0319H131.012V33.4306C131.012 34.9822 132.036 35.7131 134.252 35.7131C135.277 35.7131 136.877 35.5721 138.017 35.1617V37.9957C136.941 38.4702 135.161 38.6882 133.842 38.6882C129.962 38.6882 127.49 36.9057 127.49 34.1359V28.0319H124.455V25.4672H127.49V22.4025L131.012 21.3894V21.4022Z" fill="#212121"/>
<path id="Vector_9" d="M146.803 33.1997C143.127 33.1484 139.861 32.674 139.861 29.3142C139.861 26.57 142.141 25.2877 146.969 25.2364C149.185 25.2107 151.221 25.4672 153.142 25.8519V28.6859C150.67 28.1986 148.455 27.9293 146.585 27.9806C144.28 28.0319 143.319 28.5063 143.319 29.3142C143.319 30.3144 144.28 30.5709 147.404 30.6607C150.939 30.712 154 31.1864 154 34.3923C154 37.316 151.72 38.7138 146.508 38.6625C143.972 38.6368 141.296 38.2778 139.861 37.9957V35.1104C140.976 35.2899 143.972 35.8926 146.943 35.9054C149.428 35.9054 150.593 35.4951 150.593 34.5718C150.593 33.5844 149.658 33.2638 146.803 33.1741V33.1997Z" fill="#212121"/>
</g>
</g>
<defs>
<linearGradient id="paint0_linear_33_16" x1="-0.00473789" y1="38.0767" x2="37.7237" y2="38.0767" gradientUnits="userSpaceOnUse">
<stop stop-color="#F4831F"/>
<stop offset="1" stop-color="#EC2024"/>
</linearGradient>
<clipPath id="clip0_33_16">
<rect width="154" height="57" fill="white"/>
</clipPath>
</defs>
</svg>
